<?xml version="1.0" standalone="no"?><!DOCTYPE svg PUBLIC "-//W3C//DTD SVG 1.1//EN" "http://www.w3.org/Graphics/SVG/1.1/DTD/svg11.dtd"><svg t="1721098669459" class="icon" viewBox="0 0 1024 1024" version="1.1" xmlns="http://www.w3.org/2000/svg" p-id="2352" xmlns:xlink="http://www.w3.org/1999/xlink" width="200" height="200"><path d="M972.8 0a51.2 51.2 0 0 1 51.2 51.2v921.6a51.2 51.2 0 0 1-51.2 51.2H51.2a51.2 51.2 0 0 1-51.2-51.2V51.2a51.2 51.2 0 0 1 51.2-51.2h921.6zM691.2 281.6h-25.6c-76.8 76.8-256 102.4-256 102.4h-102.4a51.2 51.2 0 0 0-51.2 51.2v153.6a51.2 51.2 0 0 0 51.2 51.2h25.6l25.6 128h51.2v-128s179.2 25.6 256 102.4h25.6a25.6 25.6 0 0 0 25.6-25.6v-155.2128a51.2 51.2 0 0 0 0-99.1744V307.2a25.6 25.6 0 0 0-25.6-25.6z m-25.6 65.92v328.96c-44.8-30.6688-99.3792-50.56-142.336-63.2064A869.5552 869.5552 0 0 0 460.8 597.504V426.496c17.4848-3.7376 39.1168-8.96 62.464-15.7952 42.9568-12.6464 97.536-32.5376 142.336-63.232zM409.6 435.2v153.6h-102.4v-153.6h102.4z" fill="#F46C6C" p-id="2353"></path></svg>