<?xml version="1.0" standalone="no"?><!DOCTYPE svg PUBLIC "-//W3C//DTD SVG 1.1//EN" "http://www.w3.org/Graphics/SVG/1.1/DTD/svg11.dtd"><svg t="1721098595278" class="icon" viewBox="0 0 1024 1024" version="1.1" xmlns="http://www.w3.org/2000/svg" p-id="979" xmlns:xlink="http://www.w3.org/1999/xlink" width="200" height="200"><path d="M972.8 0a51.2 51.2 0 0 1 51.2 51.2v921.6a51.2 51.2 0 0 1-51.2 51.2H51.2a51.2 51.2 0 0 1-51.2-51.2V51.2a51.2 51.2 0 0 1 51.2-51.2h921.6zM588.7232 256H307.2512c-14.1568 0-25.6512 11.648-25.6512 25.3952v461.2096c0 14.0288 11.392 25.3952 25.4208 25.3952h409.9584A25.6 25.6 0 0 0 742.4 742.2208V409.6l-153.6768-153.6zM563.2 307.2v128h128v281.6H332.8V307.2h230.4z m51.2 281.6h-204.8v51.2h204.8v-51.2z m0-102.4h-204.8v51.2h204.8v-51.2z m-128-102.4h-76.8v51.2h76.8v-51.2z" fill="#40BED3" p-id="980"></path></svg>