<?xml version="1.0" standalone="no"?><!DOCTYPE svg PUBLIC "-//W3C//DTD SVG 1.1//EN" "http://www.w3.org/Graphics/SVG/1.1/DTD/svg11.dtd"><svg t="1721098664545" class="icon" viewBox="0 0 1024 1024" version="1.1" xmlns="http://www.w3.org/2000/svg" p-id="2199" xmlns:xlink="http://www.w3.org/1999/xlink" width="200" height="200"><path d="M972.8 0a51.2 51.2 0 0 1 51.2 51.2v921.6a51.2 51.2 0 0 1-51.2 51.2H51.2a51.2 51.2 0 0 1-51.2-51.2V51.2a51.2 51.2 0 0 1 51.2-51.2h921.6zM512 230.4a204.8256 204.8256 0 0 0-203.2128 179.2H281.6a51.2 51.2 0 0 0-51.2 51.2v102.4a51.2 51.2 0 0 0 51.2 51.2h76.8v-179.2a153.6 153.6 0 1 1 307.2 0v153.6a153.6 153.6 0 0 1-153.6 153.6v51.2a204.8256 204.8256 0 0 0 203.2128-179.2H742.4a51.2 51.2 0 0 0 51.2-51.2v-102.4a51.2 51.2 0 0 0-51.2-51.2h-27.1872A204.8256 204.8256 0 0 0 512 230.4z m81.408 335.0784A152.8832 152.8832 0 0 1 512 588.8a152.8832 152.8832 0 0 1-81.408-23.3216l-27.136 43.4176A203.8272 203.8272 0 0 0 512 640a203.8528 203.8528 0 0 0 108.544-31.104zM307.2 460.8v102.4h-25.6v-102.4h25.6z m435.2 0v102.4h-25.6v-102.4h25.6z" fill="#40BED3" p-id="2200"></path></svg>