<?xml version="1.0" standalone="no"?><!DOCTYPE svg PUBLIC "-//W3C//DTD SVG 1.1//EN" "http://www.w3.org/Graphics/SVG/1.1/DTD/svg11.dtd"><svg t="1721098639733" class="icon" viewBox="0 0 1024 1024" version="1.1" xmlns="http://www.w3.org/2000/svg" p-id="1438" xmlns:xlink="http://www.w3.org/1999/xlink" width="200" height="200"><path d="M972.8 0a51.2 51.2 0 0 1 51.2 51.2v921.6a51.2 51.2 0 0 1-51.2 51.2H51.2a51.2 51.2 0 0 1-51.2-51.2V51.2a51.2 51.2 0 0 1 51.2-51.2h921.6z m-242.2784 605.0816L640 695.6032 585.728 641.28l-36.1984 36.1984L640 768l126.72-126.72-36.1984-36.1984zM588.8 230.4H281.5744a25.472 25.472 0 0 0-25.5744 25.3952v461.2096a25.6 25.6 0 0 0 25.4208 25.3952H486.4v-51.2h-179.2V281.6h256v102.4h102.4v153.6h51.2v-179.2l-128-128z m0 332.8h-204.8v51.2h204.8v-51.2z m0-102.4h-204.8v51.2h204.8v-51.2z m-128-102.4h-76.8v51.2h76.8v-51.2z" fill="#F46C6C" p-id="1439"></path></svg>