<?xml version="1.0" standalone="no"?><!DOCTYPE svg PUBLIC "-//W3C//DTD SVG 1.1//EN" "http://www.w3.org/Graphics/SVG/1.1/DTD/svg11.dtd"><svg t="1721098651450" class="icon" viewBox="0 0 1024 1024" version="1.1" xmlns="http://www.w3.org/2000/svg" p-id="1744" xmlns:xlink="http://www.w3.org/1999/xlink" width="200" height="200"><path d="M972.8 0a51.2 51.2 0 0 1 51.2 51.2v921.6a51.2 51.2 0 0 1-51.2 51.2H51.2a51.2 51.2 0 0 1-51.2-51.2V51.2a51.2 51.2 0 0 1 51.2-51.2h921.6zM435.2 256h-51.2v51.2h-102.4a25.6 25.6 0 0 0-25.6 25.6v409.6a25.6 25.6 0 0 0 25.6 25.6h460.8a25.6 25.6 0 0 0 25.6-25.6V332.8a25.6 25.6 0 0 0-25.6-25.6h-102.4v-51.2h-51.2v51.2h-153.6v-51.2z m281.6 256v204.8H307.2v-204.8h409.6z m-307.2 51.2h-51.2v51.2h51.2v-51.2z m128 0h-51.2v51.2h51.2v-51.2z m128 0h-51.2v51.2h51.2v-51.2z m-281.6-204.8v51.2h51.2v-51.2h153.6v51.2h51.2v-51.2h76.8v102.4H307.2v-102.4h76.8z" fill="#A971EB" p-id="1745"></path></svg>