<?xml version="1.0" standalone="no"?><!DOCTYPE svg PUBLIC "-//W3C//DTD SVG 1.1//EN" "http://www.w3.org/Graphics/SVG/1.1/DTD/svg11.dtd"><svg t="1721098630394" class="icon" viewBox="0 0 1024 1024" version="1.1" xmlns="http://www.w3.org/2000/svg" p-id="1132" xmlns:xlink="http://www.w3.org/1999/xlink" width="200" height="200"><path d="M972.8 0a51.2 51.2 0 0 1 51.2 51.2v921.6a51.2 51.2 0 0 1-51.2 51.2H51.2a51.2 51.2 0 0 1-51.2-51.2V51.2a51.2 51.2 0 0 1 51.2-51.2h921.6z m-230.4 281.6H281.6a25.6 25.6 0 0 0-25.6 25.6v409.6a25.6 25.6 0 0 0 25.6 25.6h460.8a25.6 25.6 0 0 0 25.6-25.6V307.2a25.6 25.6 0 0 0-25.6-25.6z m-25.6 51.2v358.4H307.2V332.8h409.6z m-150.5024 37.4784L512 424.6016l-54.272-54.3232-36.2496 36.224L475.8016 460.8H409.6v51.2h76.8v25.6h-76.8v51.2h76.8v51.2h51.2v-51.2h76.8v-51.2h-76.8v-25.6h76.8v-51.2h-66.2016l54.3232-54.2976-36.224-36.224z" fill="#EAB639" p-id="1133"></path></svg>